# Blender 3.5.0
# www.blender.org
mtllib float_Body.mtl
o body
v -0.392738 0.454009 0.392738
v -0.545991 1.545991 0.545991
v -0.392738 0.454009 -0.392738
v -0.545991 1.545991 -0.545991
v 0.392738 0.454009 0.392738
v 0.545991 1.545991 0.545991
v 0.392738 0.454009 -0.392738
v 0.545991 1.545991 -0.545991
vn -0.9903 -0.1390 -0.0000
vn -0.0000 -0.1390 -0.9903
vn 0.9903 -0.1390 -0.0000
vn -0.0000 -0.1390 0.9903
vn -0.0000 -1.0000 -0.0000
vn -0.0000 1.0000 -0.0000
vt 0.095684 0.057536
vt 0.223211 0.217418
vt 0.057536 0.568667
vt 0.101911 0.102346
vt 0.216983 0.262228
vt 0.420806 0.101911
vt 0.063764 0.057536
vt 0.255131 0.057536
vt 0.057536 0.536747
vt 0.057536 0.102346
vt 0.261358 0.102346
vt 0.420806 0.057536
vt 0.063764 0.217418
vt 0.255131 0.217418
vt 0.089456 0.568667
vt 0.057536 0.262228
vt 0.261358 0.262228
vt 0.376430 0.101911
vt 0.223211 0.057536
vt 0.095684 0.217418
vt 0.089456 0.536747
vt 0.216983 0.102346
vt 0.101911 0.262228
vt 0.376430 0.057536
s 0
usemtl マテリアル.003
f 1/1/1 2/4/1 4/10/1 3/7/1
f 3/8/2 4/11/2 8/22/2 7/19/2
f 7/20/3 8/23/3 6/16/3 5/13/3
f 5/14/4 6/17/4 2/5/4 1/2/4
f 3/9/5 7/21/5 5/15/5 1/3/5
f 8/24/6 4/12/6 2/6/6 6/18/6
