# Blender 3.5.0
# www.blender.org
mtllib float_R_arm.mtl
o 立方体.002
v 1.152841 -0.939020 0.259454
v 1.152841 0.152962 0.259454
v 1.152841 -0.939020 -0.259454
v 1.152841 0.152962 -0.259454
v 0.660111 -0.939020 0.259454
v 0.660111 0.152962 0.259454
v 0.660111 -0.939020 -0.259454
v 0.660111 0.152962 -0.259454
v 1.233232 -0.011428 0.318382
v 1.289829 0.421926 0.318382
v 1.233232 -0.011428 -0.318382
v 1.289829 0.421926 -0.318382
v 0.543360 -0.108656 0.318382
v 0.624014 0.508884 0.318382
v 0.543360 -0.108656 -0.318382
v 0.624014 0.508884 -0.318382
vn -1.0000 -0.0000 -0.0000
vn -0.0000 -0.0000 1.0000
vn 1.0000 -0.0000 -0.0000
vn -0.0000 -0.0000 -1.0000
vn -0.0000 1.0000 -0.0000
vn -0.0000 -1.0000 -0.0000
vn -0.9916 0.1295 -0.0000
vn 0.9916 -0.1295 -0.0000
vn -0.1396 0.9902 -0.0000
vn -0.1295 -0.9916 -0.0000
vt 0.261358 0.536653
vt 0.648748 0.536312
vt 0.511483 0.860067
vt 0.261358 0.580936
vt 0.648748 0.580688
vt 0.255463 0.859395
vt 0.240271 0.536653
vt 0.715348 0.217418
vt 0.511483 0.838980
vt 0.240271 0.580936
vt 0.715348 0.261793
vt 0.255463 0.838308
vt 0.240271 0.377300
vt 0.668771 0.536312
vt 0.531457 0.860067
vt 0.240271 0.421582
vt 0.668771 0.580688
vt 0.235482 0.859395
vt 0.695324 0.217418
vt 0.261358 0.377300
vt 0.531457 0.838980
vt 0.695324 0.261793
vt 0.261358 0.421582
vt 0.235482 0.838308
vt 0.807418 0.863994
vt 0.807456 0.695759
vt 0.402307 0.723908
vt 0.789696 0.863994
vt 0.789696 0.695759
vt 0.674624 0.695759
vt 0.807418 0.838118
vt 0.065084 0.827052
vt 0.376430 0.723908
vt 0.789696 0.838118
vt 0.082844 0.827052
vt 0.648748 0.695759
vt 0.855675 0.340842
vt 0.815004 0.723046
vt 0.402307 0.695666
vt 0.830419 0.340842
vt 0.789696 0.723046
vt 0.674624 0.722989
vt 0.057536 0.854339
vt 0.855675 0.366719
vt 0.376430 0.695666
vt 0.082844 0.854339
vt 0.830419 0.366719
vt 0.648748 0.722989
s 0
usemtl マテリアル.002
f 1/1/1 2/4/1 4/10/1 3/7/1
f 3/8/2 4/11/2 8/22/2 7/19/2
f 7/20/3 8/23/3 6/16/3 5/13/3
f 5/14/4 6/17/4 2/5/4 1/2/4
f 3/9/5 7/21/5 5/15/5 1/3/5
f 8/24/6 4/12/6 2/6/6 6/18/6
f 9/25/7 10/28/7 12/34/7 11/31/7
f 11/32/2 12/35/2 16/46/2 15/43/2
f 15/44/8 16/47/8 14/40/8 13/37/8
f 13/38/4 14/41/4 10/29/4 9/26/4
f 11/33/9 15/45/9 13/39/9 9/27/9
f 16/48/10 12/36/10 10/30/10 14/42/10
