# Blender 3.5.0
# www.blender.org
mtllib Player.mtl
o 立方体
v -0.512689 0.133842 0.425791
v -0.512689 5.527518 0.425791
v -0.512689 0.133842 -0.425791
v -0.512689 5.527518 -0.425791
v 0.512689 0.133842 0.425791
v 0.512689 5.527518 0.425791
v 0.512689 0.133842 -0.425791
v 0.512689 5.527518 -0.425791
v -0.512689 4.861629 0.425791
v -0.512689 4.861629 -0.425791
v 0.512689 4.861629 -0.425791
v 0.512689 4.861629 0.425791
v -0.512689 4.861629 1.390352
v -0.512689 5.527518 1.390352
v 0.512689 5.527518 1.390352
v 0.512689 4.861629 1.390352
vn -1.0000 -0.0000 -0.0000
vn -0.0000 -0.0000 -1.0000
vn 1.0000 -0.0000 -0.0000
vn -0.0000 -1.0000 -0.0000
vn -0.0000 1.0000 -0.0000
vn -0.0000 -0.0000 1.0000
vt 0.375000 0.000000
vt 0.125000 0.750000
vt 0.375000 1.000000
vt 0.625000 0.000000
vt 0.875000 0.750000
vt 0.125000 0.500000
vt 0.375000 0.250000
vt 0.625000 0.250000
vt 0.875000 0.500000
vt 0.375000 0.750000
vt 0.625000 0.750000
vt 0.375000 0.500000
vt 0.625000 0.500000
vt 0.594136 1.000000
vt 0.594136 0.000000
vt 0.594136 0.250000
vt 0.594136 0.500000
vt 0.594136 0.750000
vt 0.594136 1.000000
vt 0.594136 0.000000
vt 0.625000 1.000000
vt 0.625000 0.000000
vt 0.875000 0.750000
vt 0.625000 0.750000
vt 0.594136 0.750000
s 0
usemtl マテリアル
f 2/4/1 10/16/1 9/15/1
f 4/8/2 11/17/2 10/16/2
f 8/13/3 12/18/3 11/17/3
f 12/18/4 13/19/4 9/14/4
f 7/12/4 1/2/4 3/6/4
f 4/9/5 6/11/5 8/13/5
f 12/18/6 1/3/6 5/10/6
f 11/17/3 5/10/3 7/12/3
f 10/16/2 7/12/2 3/7/2
f 9/15/1 3/7/1 1/1/1
f 15/24/6 13/19/6 16/25/6
f 9/15/1 14/22/1 2/4/1
f 6/11/3 16/25/3 12/18/3
f 2/5/5 15/24/5 6/11/5
f 2/4/1 4/8/1 10/16/1
f 4/8/2 8/13/2 11/17/2
f 8/13/3 6/11/3 12/18/3
f 12/18/4 16/25/4 13/19/4
f 7/12/4 5/10/4 1/2/4
f 4/9/5 2/5/5 6/11/5
f 12/18/6 9/14/6 1/3/6
f 11/17/3 12/18/3 5/10/3
f 10/16/2 11/17/2 7/12/2
f 9/15/1 10/16/1 3/7/1
f 15/24/6 14/21/6 13/19/6
f 9/15/1 13/20/1 14/22/1
f 6/11/3 15/24/3 16/25/3
f 2/5/5 14/23/5 15/24/5
