# Blender 3.5.0
# www.blender.org
mtllib float_Head.mtl
o head
v 0.741316 2.424889 -0.545991
v 0.741316 1.575111 -0.545991
v 0.741316 2.424889 0.545991
v 0.741316 1.575111 0.545991
v -0.741316 2.424889 -0.545991
v -0.741316 1.575111 -0.545991
v -0.741316 2.424889 0.545991
v -0.741316 1.575111 0.545991
vn -0.0000 1.0000 -0.0000
vn -0.0000 -0.0000 1.0000
vn -1.0000 -0.0000 -0.0000
vn -0.0000 -1.0000 -0.0000
vn 1.0000 -0.0000 -0.0000
vn -0.0000 -0.0000 -1.0000
vt 0.376430 0.376865
vt 0.580253 0.101911
vt 0.535877 0.261793
vt 0.101911 0.377300
vt 0.580253 0.057536
vt 0.535877 0.217418
vt 0.376430 0.421241
vt 0.420806 0.261793
vt 0.535877 0.101911
vt 0.420806 0.217418
vt 0.101911 0.421675
vt 0.535877 0.057536
vt 0.420806 0.376865
vt 0.535877 0.421241
vt 0.580253 0.261793
vt 0.535877 0.376865
vt 0.057536 0.377300
vt 0.580253 0.217418
vt 0.420806 0.421241
vt 0.376430 0.261793
vt 0.580253 0.421241
vt 0.376430 0.217418
vt 0.580253 0.376865
vt 0.057536 0.421675
s 0
usemtl Material
f 1/1/1 5/13/1 7/19/1 3/7/1
f 4/10/2 3/8/2 7/20/2 8/22/2
f 8/23/3 7/21/3 5/14/3 6/16/3
f 6/17/4 2/4/4 4/11/4 8/24/4
f 2/5/5 1/2/5 3/9/5 4/12/5
f 6/18/6 5/15/6 1/3/6 2/6/6
